<?xml version="1.0" encoding="UTF-8"?>
<svg xmlns="http://www.w3.org/2000/svg" version="1.1" viewBox="0 0 1366 768">
  <defs>
    <style>
      .cls-1 {
        fill: #fff;
      }

      .cls-2 {
        fill: #0ee811;
      }

      .cls-3 {
        fill: none;
        stroke: #fff;
        stroke-miterlimit: 10;
        stroke-width: 19.6px;
      }

      .cls-4 {
        display: none;
      }
    </style>
  </defs>
  <!-- Generator: Adobe Illustrator 28.7.1, SVG Export Plug-In . SVG Version: 1.2.0 Build 142)  -->
  <g>
    <g id="_Слой_1" data-name="Слой_1">
      <g id="_комп_с_краником" class="cls-4">
        <path class="cls-1" d="M416.7,258.1c5.2,0,9.4-4.2,9.4-9.4s-4.2-9.4-9.4-9.4-9.4,4.2-9.4,9.4,4.2,9.4,9.4,9.4h0ZM491.8,228c5.2,0,9.4-4.2,9.4-9.4s-4.2-9.4-9.4-9.4-9.4,4.2-9.4,9.4,4.2,9.4,9.4,9.4h0ZM349.1,228h3.8v3.8c0,2.1,1.5,3.8,3.6,3.9s3.8-1.5,3.9-3.6v-4.1h3.8c2.1.1,3.9-1.5,4-3.5s-1.5-3.9-3.5-4h-4.2v-3.8c0-2.1-1.5-3.8-3.6-3.9s-3.8,1.5-3.9,3.6v4.1h-3.8c-2.1-.1-3.9,1.5-4,3.5-.1,2.1,1.5,3.9,3.5,4h.4ZM551.9,254.3h3.8v3.8c0,2.1,1.8,3.7,3.9,3.6,2,0,3.5-1.6,3.6-3.6v-3.8h3.8c2.1,0,3.8-1.7,3.8-3.8s-1.7-3.8-3.8-3.8h-3.8v-3.8c0-2.1-1.8-3.7-3.9-3.6-2,0-3.5,1.6-3.6,3.6v3.8h-3.8c-2.1,0-3.8,1.7-3.8,3.8s1.7,3.8,3.8,3.8h0ZM536.8,291.9c-2.1,0-3.8,1.7-3.8,3.7h0v26.3c0,2.1,1.7,3.8,3.8,3.8s3.8-1.7,3.8-3.8v-26.3c0-2.1-1.7-3.8-3.8-3.8h0ZM536.8,340.7c2.1,0,3.8-1.7,3.8-3.8s-1.7-3.8-3.8-3.8-3.8,1.7-3.8,3.8,1.7,3.8,3.8,3.8Z"/>
        <path class="cls-1" d="M566.9,404.5h-11.3v-120.2c0-6.2-5-11.3-11.3-11.3h-172.8c-6.2,0-11.3,5-11.3,11.3s0,0,0,0v120.2h-11.3c-2.1,0-3.8,1.7-3.8,3.8,0,14.5,11.8,26.3,26.3,26.3h172.8c14.5,0,26.3-11.8,26.3-26.3s-1.7-3.8-3.8-3.8h.2ZM480.5,419.6h-45.1c-3.2,0-6-3.2-7-7.5h59.2c-1.1,4.3-3.9,7.5-7,7.5h-.1ZM548.1,404.5h-180.3v-120.2c0-2.1,1.7-3.8,3.7-3.8h172.8c2.1,0,3.8,1.7,3.8,3.8h0v120.2h0Z"/>
        <path class="cls-1" d="M536.8,389.5h-9.4v-26.3c0-2.1-1.7-3.8-3.8-3.8h-18.8c-2.1,0-3.8,1.7-3.8,3.8v26.3h-11.3v-41.3c0-2.1-1.7-3.8-3.8-3.8h-18.8c-2.1,0-3.8,1.7-3.8,3.8v41.3h-11.3v-63.9c0-2.1-1.7-3.8-3.8-3.8h-18.8c-2.1,0-3.8,1.7-3.8,3.8v63.8h-11.3v-90.1c0-2.1-1.7-3.8-3.7-3.8h-18.8c-2.1,0-3.8,1.7-3.8,3.8v90.1h-9.4c-2.1,0-3.7,1.8-3.6,3.9,0,2,1.6,3.5,3.6,3.6h157.7c2.1,0,3.8-1.7,3.8-3.8s-1.7-3.8-3.8-3.8h0l.5.2ZM465.5,318.1c1,0,2-.4,2.7-1.1l6.4-6.4h39.8c2.1,0,3.8-1.7,3.8-3.8s-1.7-3.8-3.8-3.8h-41.3c-1,0-2,.4-2.7,1.1l-7.5,7.5c-1.5,1.5-1.5,3.9,0,5.3.7.7,1.7,1.1,2.6,1.1h0ZM491.8,295.6h22.5c2.1,0,3.8-1.7,3.8-3.7s-1.7-3.8-3.7-3.8h-22.5c-2.1,0-3.8,1.7-3.8,3.7s1.7,3.8,3.7,3.8h0Z"/>
      </g>
      <g id="_оператор" class="cls-4">
        <rect class="cls-1" x="681.4" y="291.7" width="22" height="40" rx="6.2" ry="6.2"/>
        <rect class="cls-1" x="781.4" y="291.7" width="22" height="40" rx="6.2" ry="6.2"/>
        <path class="cls-1" d="M807.4,378.7c-7-10.4-32.8-22.4-39.4-25.3-1-.4-2.1-.3-2.9.3-1.5,1-4.1,2.8-6.7,4s-6.3,2.2-8.4,2.7-1.8.9-2.2,1.9l-2.7,7.3c-.9,2.6-4.6,2.7-5.6,0l-2.6-6.5c-.4-.9-1.2-1.6-2.2-1.8-2.1-.4-5.7-1.3-8.4-2.7s-4.9-3.2-6.4-4.6-2.3-1-3.4-.5c-6.7,3.4-29.5,15.1-36.3,21-8.4,7.3-12.8,28.7-13.8,33.9s0,1.6.4,2.2c3.2,4.8,19.8,24,76.6,23.1,56.7-1,71-18.7,73.7-23.1s.5-1.3.4-2c-.6-4.1-3.4-19.6-10.3-30h.2ZM784.4,393.7h-21c-1.7,0-3-1.3-3-3h0c0-1.7,1.3-3,3-3h21c1.7,0,3,1.3,3,3h0c0,1.7-1.3,3-3,3Z"/>
        <rect class="cls-1" x="735.4" y="332.7" width="17" height="12" rx="4" ry="4"/>
        <path class="cls-1" d="M699.7,291.7s-.3-8,3.7-16,16.1-20,39.1-19.5,30.9,8.5,35.9,15.5,7,19,7,22,8,1,8,1c0,0,0-16-5-25s-19.9-23-45.9-22-34.4,8.1-42.8,17.1-9.3,31.9-9.3,31.9l9-2,.3-3Z"/>
        <path class="cls-1" d="M751.4,335.7s10.8,1,20.4,0,16.6-6,16.6-6h7.2s-7.2,8-15.2,10-30.6,1.1-30.6,1.1l1.6-5.1Z"/>
        <path class="cls-1" d="M704.8,291c-.2-.2-.4-.6-.3-.9.2-2.4,1.5-11,6-16.4s13.5-12.5,31.7-12.2,26.3,6.2,29.3,9.2c7,7,8.4,20,8.7,20s-3.8,3-3.8,6-.9,30,0,31,0,0,0,0c.7.6.5,1.7-.4,2-2.1.9-5.6,1.9-9.7,1.9h-11.5c-.3,0-.6-.1-.9-.4-1-1-4.2-3.6-10.7-3.6s-13,5-13,10,1,11,12,11,11-1.8,11.7-2.6.6-.4.9-.4h9.7c1.1,0,1.6,1.3.9,2.1-3,3.1-10,8.6-21.7,10.4s-32.9-20.5-36.8-25.5-.3-1.2.2-1.7c.9-.8,2.1-2,2.1-3.3,0-2,0-30-1-32s-2.8-3.8-3.6-4.6h.2Z"/>
      </g>
      <g id="_планета" class="cls-4">
        <circle class="cls-3" cx="669.3" cy="373.9" r="78.5"/>
        <line class="cls-3" x1="589.8" y1="372.4" x2="744.8" y2="372.4"/>
        <path class="cls-3" d="M663.8,297.4s-22.1,35-21.1,75,26.1,72,26.1,72c0,0,28.3-32,27.6-72s-24.6-75-24.6-75h-8Z"/>
      </g>
      <g class="cls-4">
        <path class="cls-1" d="M781,317.6l-16.5-16.5c-1.1-1.1-2.6-1.7-4.2-1.7h-35.1c-7.6-13.7-22.2-23-39-23-24.6,0-44.5,19.9-44.5,44.5s19.9,44.5,44.5,44.5,30.6-8.8,38.3-21.9h3.8c1.4,0,2.8-.6,3.8-1.6l7-7,7.7,7.7c1,1,2.5,1,3.5,0l6.3-6.3,5.8,5.8c.6.6,1.7.6,2.3,0l16-16c2.4-2.4,2.4-6.2,0-8.6h.3ZM672.8,333.4c-7.2,0-13-5.8-13-13s5.8-13,13-13,13,5.8,13,13-5.8,13-13,13ZM742.8,323.4h-12.1v-4h12c1.1,0,2,.9,2,2s-.9,2-2,2h0Z"/>
        <path class="cls-1" d="M657.7,382.8l-21.7,9.4c-7.9,3.4-11.5,12.6-8.1,20.5l10,23.1c3.4,7.9,12.6,11.5,20.5,8.1l21-9.1-21.7-52Z"/>
        <path class="cls-1" d="M660.8,381.4c0,1,22,52,22,52l5.8-2.6c2.9-1.3,4.2-4.7,3-7.7l-17.5-41.2c-1.3-3-4.8-4.4-7.7-3l-5.6,2.5h0Z"/>
        <path class="cls-1" d="M672.8,385.3s12-7.9,29-9.9,25.9,4.9,37,5,12-4,16-3,6,3,3,10-10,7-19,7-6.1,4.9,6,4,18-5,19-16-9-10-12-9-7,3-13,3-18-8-30-7-27,5-37,12,1,3.9,1,3.9Z"/>
        <path class="cls-1" d="M761.8,380.4c2-1,16-13,21-14s11-2,15,8-17,21-23,26-26,16-33,19-20,6-35,5-17,2-17,2l-1-5s5-3,20-2,35-3,54-15,32-22,31-28-6-7-9-6-23,15-23,15v-5Z"/>
      </g>
      <g>
        <path class="cls-2" d="M514.3,585.7h-93c-4.3,0-7.7,3.5-7.7,7.7s3.5,7.7,7.7,7.7h93c4.3,0,7.7-3.5,7.7-7.7s-3.5-7.7-7.7-7.7Z"/>
        <path class="cls-2" d="M851.3,601.2h93c4.3,0,7.7-3.5,7.7-7.7s-3.5-7.7-7.7-7.7h-93c-4.3,0-7.7,3.5-7.7,7.7s3.5,7.7,7.7,7.7Z"/>
        <path class="cls-2" d="M916,66.7h-465.9c-50,0-90.2,40.3-90.2,90.2v252.1c0,50,40.3,90.2,90.2,90.2h70.5c-4.3-34.5-.8-65.1,15.9-65.1s51.1-4.6,69.7-13.9c30.2-15.1,51.1-32.5,61.6-37.2,10.1-4.3,17.8-5,24,0,6.6,5,63.5,41.8,105.3,46.5,27.9,3.1,43.4,7.7,46.5,13.9,1.9,4.3,2.3,26.7-1.9,55.8h74.4c50,0,90.2-40.3,90.2-90.2v-252.1c0-50-40.3-90.2-90.2-90.2ZM950.4,466.8l-218.1-181.6c-6.2,3.1-12.8,6.2-19.8,8.9-20.1,7.4-41.8,8.1-62.7,2.3-7.7-2.3-15.5-5.4-22.5-9.7l-212.6,175.4-10.1-8.5c.4-.8,182.8-151,211.1-174.3-1.2-1.2-2.7-1.9-3.9-3.1l-204.5-166.9c-3.5-2.7-3.1-7.7,0-10.5,3.1-2.3,7.7-2.3,10.8,0l209.5,173.1c6.6,5.4,14.7,9.3,23.2,11.2,22.1,4.6,44.9,3.5,65.8-4.3,6.2-2.3,12-5.4,17.4-9.7l211.5-172c2.3-1.9,5.4-1.5,7.7.4l1.2,1.5c2.3,2.3,1.9,5.8-.4,7.7l-199.1,161.9c-3.9,3.1-7.7,5.8-12,8.9l216.1,174.7-9.3,13.9.4.4Z"/>
        <path class="cls-2" d="M777.7,454c-34.9-3.9-82.1-34.5-87.5-38.7-5.4-3.9-11.6-3.9-20.1,0s-25.9,18.2-51.1,31c-15.5,7.7-47.3,11.6-58.1,11.6-23.2,0-15.5,69.7,0,108.4s46.5,81.3,81.3,104.6c34.9,23.2,39.9,19.8,39.9,19.8,0,0,64.7-27.5,99.5-81.7,34.9-54.2,38.7-135.6,34.9-143.3-2.6-5.2-15.5-9-38.7-11.6ZM746.7,527.2l-.4.4-63.9,60.8c-5.4,5-13.6,5-18.6,0l-30.2-27.9c-5.8-5.4-6.2-14.7-.4-20.1l1.9-1.9c6.2-6.2,15.9-6.6,22.5-.8l15.5,13.2,50.3-47.3c2.5-2.3,5.5-3.7,8.6-4.3h5.7c3.3.5,6.4,2,9,4.3,6.6,6.6,6.6,17,0,23.6Z"/>
        <path class="cls-2" d="M514.3,624v.4h-69.7c-2.3,0-4.3,1.2-5.8,2.7l-32.9,25.9c-3.9,3.1-4.3,8.9-.8,12.8,2.7,2.7,7.4,3.1,10.1.4l32.5-26.7h66.6c4.3,0,7.7-3.5,7.7-7.7s-3.5-7.7-7.7-7.7Z"/>
        <path class="cls-2" d="M514.3,543.5h-66.6l-32.5-26.7c-2.7-2.7-7.4-2.3-10.1.4-3.5,3.9-3.1,9.7.8,12.8l32.9,25.9c1.5,1.5,3.5,2.7,5.8,2.7h69.7v.4c4.3,0,7.7-3.5,7.7-7.7s-3.5-7.7-7.7-7.7Z"/>
        <path class="cls-2" d="M960.1,660.8l-32.9-25.9c-1.5-1.5-3.5-2.7-5.8-2.7h-69.7v-.4c-4.3,0-7.7,3.5-7.7,7.7s3.5,7.7,7.7,7.7h66.6l32.5,26.7c2.7,2.7,7.4,2.3,10.1-.4,3.5-3.9,3.1-9.7-.8-12.8Z"/>
        <path class="cls-2" d="M950.8,512.9l-32.5,26.7h-66.6c-4.3,0-7.7,3.5-7.7,7.7s3.5,7.7,7.7,7.7v-.4h69.7c2.3,0,4.3-1.2,5.8-2.7l32.9-25.9c3.9-3.1,4.3-8.9.8-12.8-2.7-2.7-7.4-3.1-10.1-.4Z"/>
      </g>
    </g>
  </g>
</svg>