<?xml version="1.0" encoding="UTF-8"?>
<svg xmlns="http://www.w3.org/2000/svg" version="1.1" viewBox="0 0 1366 768">
  <defs>
    <style>
      .cls-1 {
        fill: #fff;
      }

      .cls-2 {
        fill: #0ee811;
      }

      .cls-3 {
        stroke: #fff;
        stroke-width: 19.6px;
      }

      .cls-3, .cls-4 {
        fill: none;
        stroke-miterlimit: 10;
      }

      .cls-4 {
        stroke: #0ee811;
        stroke-width: 43.2px;
      }

      .cls-5 {
        display: none;
      }
    </style>
  </defs>
  <!-- Generator: Adobe Illustrator 28.7.1, SVG Export Plug-In . SVG Version: 1.2.0 Build 142)  -->
  <g>
    <g id="_Слой_1" data-name="Слой_1">
      <g id="_комп_с_краником" class="cls-5">
        <path class="cls-1" d="M387.9,279.7c5.2,0,9.4-4.2,9.4-9.4s-4.2-9.4-9.4-9.4-9.4,4.2-9.4,9.4,4.2,9.4,9.4,9.4h0ZM463,249.6c5.2,0,9.4-4.2,9.4-9.4s-4.2-9.4-9.4-9.4-9.4,4.2-9.4,9.4,4.2,9.4,9.4,9.4h0ZM320.3,249.6h3.8v3.8c0,2.1,1.5,3.8,3.6,3.9s3.8-1.5,3.9-3.6v-4.1h3.8c2.1.1,3.9-1.5,4-3.5s-1.5-3.9-3.5-4h-4.2v-3.8c0-2.1-1.5-3.8-3.6-3.9s-3.8,1.5-3.9,3.6v4.1h-3.8c-2.1-.1-3.9,1.5-4,3.5-.1,2.1,1.5,3.9,3.5,4h.4ZM523.1,275.9h3.8v3.8c0,2.1,1.8,3.7,3.9,3.6,2,0,3.5-1.6,3.6-3.6v-3.8h3.8c2.1,0,3.8-1.7,3.8-3.8s-1.7-3.8-3.8-3.8h-3.8v-3.8c0-2.1-1.8-3.7-3.9-3.6-2,0-3.5,1.6-3.6,3.6v3.8h-3.8c-2.1,0-3.8,1.7-3.8,3.8s1.7,3.8,3.8,3.8h0ZM508,313.5c-2.1,0-3.8,1.7-3.8,3.7h0v26.3c0,2.1,1.7,3.8,3.8,3.8s3.8-1.7,3.8-3.8v-26.3c0-2.1-1.7-3.8-3.8-3.8h0ZM508,362.3c2.1,0,3.8-1.7,3.8-3.8s-1.7-3.8-3.8-3.8-3.8,1.7-3.8,3.8,1.7,3.8,3.8,3.8Z"/>
        <path class="cls-1" d="M538.1,426.1h-11.3v-120.2c0-6.2-5-11.3-11.3-11.3h-172.8c-6.2,0-11.3,5-11.3,11.3s0,0,0,0v120.2h-11.3c-2.1,0-3.8,1.7-3.8,3.8,0,14.5,11.8,26.3,26.3,26.3h172.8c14.5,0,26.3-11.8,26.3-26.3s-1.7-3.8-3.8-3.8h.2ZM451.7,441.2h-45.1c-3.2,0-6-3.2-7-7.5h59.2c-1.1,4.3-3.9,7.5-7,7.5h-.1ZM519.3,426.1h-180.3v-120.2c0-2.1,1.7-3.8,3.7-3.8h172.8c2.1,0,3.8,1.7,3.8,3.8h0v120.2h0Z"/>
        <path class="cls-1" d="M508,411.1h-9.4v-26.3c0-2.1-1.7-3.8-3.8-3.8h-18.8c-2.1,0-3.8,1.7-3.8,3.8v26.3h-11.3v-41.3c0-2.1-1.7-3.8-3.8-3.8h-18.8c-2.1,0-3.8,1.7-3.8,3.8v41.3h-11.3v-63.9c0-2.1-1.7-3.8-3.8-3.8h-18.8c-2.1,0-3.8,1.7-3.8,3.8v63.8h-11.3v-90.1c0-2.1-1.7-3.8-3.7-3.8h-18.8c-2.1,0-3.8,1.7-3.8,3.8v90.1h-9.4c-2.1,0-3.7,1.8-3.6,3.9,0,2,1.6,3.5,3.6,3.6h157.7c2.1,0,3.8-1.7,3.8-3.8s-1.7-3.8-3.8-3.8h0l.5.2ZM436.7,339.7c1,0,2-.4,2.7-1.1l6.4-6.4h39.8c2.1,0,3.8-1.7,3.8-3.8s-1.7-3.8-3.8-3.8h-41.3c-1,0-2,.4-2.7,1.1l-7.5,7.5c-1.5,1.5-1.5,3.9,0,5.3.7.7,1.7,1.1,2.6,1.1h0ZM463,317.2h22.5c2.1,0,3.8-1.7,3.8-3.7s-1.7-3.8-3.7-3.8h-22.5c-2.1,0-3.8,1.7-3.8,3.7s1.7,3.8,3.7,3.8h0Z"/>
      </g>
      <g id="_оператор" class="cls-5">
        <rect class="cls-1" x="652.6" y="313.3" width="22" height="40" rx="6.2" ry="6.2"/>
        <rect class="cls-1" x="752.6" y="313.3" width="22" height="40" rx="6.2" ry="6.2"/>
        <path class="cls-1" d="M778.6,400.3c-7-10.4-32.8-22.4-39.4-25.3-1-.4-2.1-.3-2.9.3-1.5,1-4.1,2.8-6.7,4s-6.3,2.2-8.4,2.7-1.8.9-2.2,1.9l-2.7,7.3c-.9,2.6-4.6,2.7-5.6,0l-2.6-6.5c-.4-.9-1.2-1.6-2.2-1.8-2.1-.4-5.7-1.3-8.4-2.7s-4.9-3.2-6.4-4.6-2.3-1-3.4-.5c-6.7,3.4-29.5,15.1-36.3,21-8.4,7.3-12.8,28.7-13.8,33.9s0,1.6.4,2.2c3.2,4.8,19.8,24,76.6,23.1,56.7-1,71-18.7,73.7-23.1s.5-1.3.4-2c-.6-4.1-3.4-19.6-10.3-30h.2ZM755.6,415.3h-21c-1.7,0-3-1.3-3-3h0c0-1.7,1.3-3,3-3h21c1.7,0,3,1.3,3,3h0c0,1.7-1.3,3-3,3Z"/>
        <rect class="cls-1" x="706.6" y="354.3" width="17" height="12" rx="4" ry="4"/>
        <path class="cls-1" d="M670.9,313.3s-.3-8,3.7-16,16.1-20,39.1-19.5,30.9,8.5,35.9,15.5,7,19,7,22,8,1,8,1c0,0,0-16-5-25s-19.9-23-45.9-22-34.4,8.1-42.8,17.1-9.3,31.9-9.3,31.9l9-2,.3-3Z"/>
        <path class="cls-1" d="M722.6,357.3s10.8,1,20.4,0,16.6-6,16.6-6h7.2s-7.2,8-15.2,10-30.6,1.1-30.6,1.1l1.6-5.1Z"/>
        <path class="cls-1" d="M676,312.6c-.2-.2-.4-.6-.3-.9.2-2.4,1.5-11,6-16.4s13.5-12.5,31.7-12.2,26.3,6.2,29.3,9.2c7,7,8.4,20,8.7,20s-3.8,3-3.8,6-.9,30,0,31,0,0,0,0c.7.6.5,1.7-.4,2-2.1.9-5.6,1.9-9.7,1.9h-11.5c-.3,0-.6-.1-.9-.4-1-1-4.2-3.6-10.7-3.6s-13,5-13,10,1,11,12,11,11-1.8,11.7-2.6.6-.4.9-.4h9.7c1.1,0,1.6,1.3.9,2.1-3,3.1-10,8.6-21.7,10.4s-32.9-20.5-36.8-25.5-.3-1.2.2-1.7c.9-.8,2.1-2,2.1-3.3,0-2,0-30-1-32s-2.8-3.8-3.6-4.6h.2Z"/>
      </g>
      <g id="_планета" class="cls-5">
        <circle class="cls-3" cx="640.5" cy="395.5" r="78.5"/>
        <line class="cls-3" x1="561" y1="394" x2="716" y2="394"/>
        <path class="cls-3" d="M635,319s-22.1,35-21.1,75,26.1,72,26.1,72c0,0,28.3-32,27.6-72s-24.6-75-24.6-75h-8Z"/>
      </g>
      <g class="cls-5">
        <path class="cls-1" d="M752.2,339.2l-16.5-16.5c-1.1-1.1-2.6-1.7-4.2-1.7h-35.1c-7.6-13.7-22.2-23-39-23-24.6,0-44.5,19.9-44.5,44.5s19.9,44.5,44.5,44.5,30.6-8.8,38.3-21.9h3.8c1.4,0,2.8-.6,3.8-1.6l7-7,7.7,7.7c1,1,2.5,1,3.5,0l6.3-6.3,5.8,5.8c.6.6,1.7.6,2.3,0l16-16c2.4-2.4,2.4-6.2,0-8.6h.3ZM644,355c-7.2,0-13-5.8-13-13s5.8-13,13-13,13,5.8,13,13-5.8,13-13,13ZM714,345h-12.1v-4h12c1.1,0,2,.9,2,2s-.9,2-2,2h0Z"/>
        <path class="cls-1" d="M628.9,404.4l-21.7,9.4c-7.9,3.4-11.5,12.6-8.1,20.5l10,23.1c3.4,7.9,12.6,11.5,20.5,8.1l21-9.1-21.7-52Z"/>
        <path class="cls-1" d="M632,403c0,1,22,52,22,52l5.8-2.6c2.9-1.3,4.2-4.7,3-7.7l-17.5-41.2c-1.3-3-4.8-4.4-7.7-3l-5.6,2.5h0Z"/>
        <path class="cls-1" d="M644,406.9s12-7.9,29-9.9,25.9,4.9,37,5,12-4,16-3,6,3,3,10-10,7-19,7-6.1,4.9,6,4,18-5,19-16-9-10-12-9-7,3-13,3-18-8-30-7-27,5-37,12,1,3.9,1,3.9Z"/>
        <path class="cls-1" d="M733,402c2-1,16-13,21-14s11-2,15,8-17,21-23,26-26,16-33,19-20,6-35,5-17,2-17,2l-1-5s5-3,20-2,35-3,54-15,32-22,31-28-6-7-9-6-23,15-23,15v-5Z"/>
      </g>
      <g class="cls-5">
        <path class="cls-1" d="M674,422h24c1.1,0,2,.9,2,2h0c0,1.1-.9,2-2,2h-24c-1.1,0-2-.9-2-2h0c0-1.1.9-2,2-2Z"/>
        <path class="cls-1" d="M785,422h24c1.1,0,2,.9,2,2h0c0,1.1-.9,2-2,2h-24c-1.1,0-2-.9-2-2h0c0-1.1.9-2,2-2Z"/>
        <g>
          <path class="cls-1" d="M801.7,288h-120.3c-12.9,0-23.3,10.4-23.3,23.3v65.1c0,12.9,10.4,23.3,23.3,23.3h18.2c-1.1-8.9-.2-16.8,4.1-16.8s13.2-1.2,18-3.6c7.8-3.9,13.2-8.4,15.9-9.6,2.6-1.1,4.6-1.3,6.2,0,1.7,1.3,16.4,10.8,27.2,12,7.2.8,11.2,2,12,3.6.5,1.1.6,6.9-.5,14.4h19.2c12.9,0,23.3-10.4,23.3-23.3v-65.1c0-12.9-10.4-23.3-23.3-23.3h0ZM810.6,391.3l-56.3-46.9h0c-1.6.8-3.3,1.6-5.1,2.3-5.2,1.9-10.8,2.1-16.2.6-2-.6-4-1.4-5.8-2.5l-54.9,45.3-2.6-2.2c0-.2,47.2-39,54.5-45-.3-.3-.7-.5-1-.8l-52.8-43.1c-.9-.7-.8-2,0-2.7.8-.6,2-.6,2.8,0l54.1,44.7c1.7,1.4,3.8,2.4,6,2.9,5.7,1.2,11.6.9,17-1.1,1.6-.6,3.1-1.4,4.5-2.5l54.6-44.4c.6-.5,1.4-.4,2,.1l.3.4c.6.6.5,1.5,0,2l-51.4,41.8c-1,.8-2,1.5-3.1,2.3l55.8,45.1-2.4,3.6h.1Z"/>
          <path class="cls-1" d="M761.2,397.2c-2-2-5.1-2-7.2-.1l-2.8,2.6h11.3c-.2-.9-.6-1.8-1.4-2.5h.1Z"/>
        </g>
        <path class="cls-1" d="M776,391c-.7-1.3-4-2.3-10-3-9-1-21.2-8.9-22.6-10-1.4-1-3-1-5.2,0s-6.7,4.7-13.2,8c-4,2-12.2,3-15,3-6,0-4,18,0,28s12,21,21,27,10.3,5.1,10.3,5.1c0,0,16.7-7.1,25.7-21.1s10-35,9-37ZM757.9,407l-16.5,15.7c-1.4,1.3-3.5,1.3-4.8,0l-7.8-7.2c-1.5-1.4-1.6-3.8,0-5.2l.5-.5c1.6-1.6,4.1-1.7,5.8-.2l4,3.4,13-12.2c1.7-1.6,4.3-1.5,6,0h0c1.7,1.7,1.7,4.4,0,6.1h-.1Z"/>
        <path class="cls-1" d="M698,432h-18c-.6,0-1.1.3-1.5.7h0l-8.5,6.7c-1,.8-1.1,2.3-.2,3.3h0c.7.7,1.9.8,2.6.1l8.4-6.9h17.2c1.1,0,2-.9,2-2s-.9-2-2-2h0Z"/>
        <path class="cls-1" d="M698,415h-18c-.6,0-1.1-.3-1.5-.7h0l-8.5-6.7c-1-.8-1.1-2.3-.2-3.3h0c.7-.7,1.9-.8,2.6-.1l8.4,6.9h17.2c1.1,0,2,.9,2,2s-.9,2-2,2h0Z"/>
        <path class="cls-1" d="M785.1,434h18c.6,0,1.1.3,1.5.7h0l8.5,6.7c1,.8,1.1,2.3.2,3.3h0c-.7.7-1.9.8-2.6.1l-8.4-6.9h-17.2c-1.1,0-2-.9-2-2s.9-2,2-2h0Z"/>
        <path class="cls-1" d="M785.1,414h18c.6,0,1.1-.3,1.5-.7h0l8.5-6.7c1-.8,1.1-2.3.2-3.3h0c-.7-.7-1.9-.8-2.6-.1l-8.4,6.9h-17.2c-1.1,0-2,.9-2,2s.9,2,2,2h0Z"/>
      </g>
      <path class="cls-2" d="M872.7,110.6l-9.1,16.5c-3.9,7-9.5,13-16.5,17.5l-9.8,6c-7.4,4.6-8.1,15.4-1.1,20.7l14.4,11.2c7.4,6,13.7,13.3,17.5,21.8l3.9,7.7c4.9,10.2,19.3,10.2,24.2,0l4.2-8.8c3.9-7.7,9.5-14.4,16.1-20l14.7-11.2c7-5.6,6.3-16.5-1.8-20.7l-5.3-2.8c-11.9-6.7-21.4-16.8-27-29.1l-3.5-7.7c-4.2-9.1-17.2-9.8-21.8-.7l.7-.4Z"/>
      <path class="cls-2" d="M691,200.8s28.1-38.6,24.6-63.1c-3.5-24.6-14-31.6-31.6-28.1s-17.5,14-31.6,14-18.2-17.5-35.4-19.3c-17.2-1.8-20.7,12.3-34.7,15.8-14,3.5-35.1-21-56.1-10.5s-21,24.6-17.5,38.6,21,45.6,21,45.6c0,0-45.6-28.1-63.1-21-17.5,7-22.1,31.6-9.1,38.6,12.6,7,37.2,17.5,37.2,17.5,0,0-21,10.5-35.1,14-14,3.5-31.6,14-28.1,31.6s35.1,21,35.1,21c0,0-70.2,66.7-84.2,133.3-14,66.7-3.5,140.3,24.6,171.9,28.1,31.6,63.1,52.6,133.3,59.6,35.8,3.5,56.5,3.9,67.7,3.2,7.7-.4,13.3-6.7,13.3-14.4v-39.6c-.4-8.1,3.2-15.4,9.8-20.3l11.2-8.4c3.2-2.5,3.2-7.4,0-9.8l-8.1-5.3c-8.1-5.6-13.3-14.7-13.3-24.9v-40c0-11.2,8.8-20.7,20-21.4l14-1.1c4.6,0,7-5.6,3.9-9.1-12.6-15.4-37.2-50.9-34.7-89.8,3.5-52.6,14-87.7,52.6-115.8s35.1-42.1,31.6-49.1-17.5-14-17.5-14l.4.4ZM511,247.8c-3.5,5.3-9.5,12.3-20,19.6-24.6,17.5-38.6,14-42.1,7-2.1-4.6,0-14,17.5-17.5,11.2-2.1,27.7-10.2,38.6-15.4,4.2-2.1,8.4,2.5,6,6.3ZM508.6,225.4s-35.1-17.5-42.1-24.6,0-17.5,10.5-14,42.1,21,42.1,21l-10.5,17.5ZM696.3,225.4c-1.8,10.5-15.8,24.6-71.9,24.6s-84.2-7-94.7-14-7-17.5-3.5-21,14-3.5,14-3.5c7,0,28.1,7,70.2,7s66.7-7,73.7-7,14,3.5,12.3,14Z"/>
      <path class="cls-2" d="M925.7,544.6h-8.8c-4.2,0-7.4-3.5-7.4-7.4v-33c0-6.7-5.6-12.3-12.3-12.3h-250.1c-8.4,0-15.4,7-15.4,15.4v35.1c0,7,5.6,12.6,12.6,12.6h11.2c2.1,0,4.2,1.8,4.2,4.2v28.8c0,3.2-2.5,5.6-5.6,5.6h-6c-8.4,0-15.1,6.7-15.1,15.1v40.3c0,6.7,5.6,12.3,12.3,12.3h250.5c7,0,13-5.6,13-13v-32.3c0-4.9,3.9-8.8,8.8-8.8h6c6,0,11.2-4.9,11.2-11.2v-43.2c0-4.9-3.9-8.8-8.8-8.8l-.4.4ZM684,506h14v38.6h-14v-38.6ZM701.5,646.3h-14v-38.6h14v38.6ZM726.1,597.2h-14v-38.6h14v38.6ZM736.6,506h14v38.6h-14v-38.6ZM754.1,646.3h-14v-38.6h14v38.6ZM778.7,597.2h-14v-38.6h14v38.6ZM789.2,506h14v38.6h-14v-38.6ZM806.8,646.3h-14v-38.6h14v38.6ZM831.3,597.2h-14v-38.6h14v38.6ZM841.8,506h14v38.6h-14v-38.6ZM859.4,646.3h-14v-38.6h14v38.6ZM883.9,597.2h-14v-38.6h14v38.6Z"/>
      <path class="cls-4" d="M771,265.7c59.7,0,108.1,48.4,108.1,108.1s-48.4,108.1-108.1,108.1-108.1-48.4-108.1-108.1,48.4-108.1,108.1-108.1Z"/>
      <path class="cls-2" d="M787.5,394.5c0-3.2-1.1-6-3.5-7.7s-6.3-3.9-12.3-5.6c-6-2.1-10.9-3.9-14.4-5.6-12.3-6-18.2-14.4-18.2-24.6s1.4-9.8,4.6-13.7,7.4-7,13-9.5c5.6-2.1,11.9-3.2,18.6-3.2s13,1.1,18.2,3.5,9.5,6,12.6,10.2,4.6,9.5,4.6,15.4h-22.8c0-3.9-1.1-6.7-3.5-8.8s-5.6-3.2-9.5-3.2-7.4,1.1-9.5,2.8c-2.5,1.8-3.5,4.2-3.5,6.7s1.4,4.6,3.9,6.7c2.5,2.1,7,3.9,13.7,6s11.9,4.2,16.1,6.7c10.2,6,15.1,14,15.1,24.2s-3.2,14.7-9.5,19.3-14.7,7-25.6,7-14.4-1.4-20.7-4.2c-6.3-2.8-10.9-6.3-14-11.2-3.2-4.9-4.6-10.2-4.6-16.5h22.8c0,4.9,1.4,8.8,3.9,11.2,2.5,2.5,7,3.5,12.6,3.5s6.7-.7,8.8-2.5,3.2-3.9,3.2-6.7v-.4Z"/>
      <path class="cls-2" d="M775.2,309.6h0c3.9,0,7,3.1,7,7v7c0,3.9-3.1,7-7,7h0c-3.9,0-7-3.1-7-7v-7c0-3.9,3.1-7,7-7Z"/>
      <path class="cls-2" d="M775.2,411.3h0c3.9,0,7,3.1,7,7v7c0,3.9-3.1,7-7,7h0c-3.9,0-7-3.1-7-7v-7c0-3.9,3.1-7,7-7Z"/>
      <path class="cls-2" d="M771.1,242.9c-71.8,0-130,58.2-130,130s58.2,130.1,130,130.1,130.1-58.2,130.1-130.1-58.2-130-130.1-130ZM771,461.4c-48.4,0-87.6-39.2-87.6-87.6s39.2-87.6,87.6-87.6,87.6,39.2,87.6,87.6-39.2,87.6-87.6,87.6Z"/>
    </g>
  </g>
</svg>