<svg version="1.2" xmlns="http://www.w3.org/2000/svg" viewBox="0 0 1023 482" width="1023" height="482">
	<title>Логотип Монитрекс1</title>
	<defs>
		<linearGradient id="g1" x2="1" gradientUnits="userSpaceOnUse" gradientTransform="matrix(524.3,524.3,-524.25,524.25,241.3,-22.3)">
			<stop offset=".4" stop-color="#b6db4d"/>
			<stop offset="1" stop-color="#0ee811"/>
		</linearGradient>
	</defs>
	<style>
		.s0 { fill: url(#g1) } 
	</style>
	<g>
		<g id="_Слой_1">
			<path class="s0" d="m93.2 205.8h24.9v68.1h-18.3v-47.8l-25.3 47.8h-17.6l-25.3-47.8v47.8h-18.4v-68.1h25l27.5 51.5zm131.1 18.6c2.1 4.5 3.2 9.6 3.2 15.5 0 5.9-1.1 11-3.2 15.5-2.1 4.5-5.2 8.2-9.2 11.2-4 3-8.8 5.3-14.5 6.8-5.7 1.5-12.1 2.3-19.2 2.3-7.1 0-13.5-0.8-19.3-2.3-5.7-1.5-10.6-3.8-14.6-6.8-4-3-7.1-6.7-9.3-11.2-2.2-4.5-3.3-9.6-3.3-15.5 0-5.9 1.1-11 3.3-15.5 2.2-4.5 5.3-8.2 9.3-11.2 4-3 8.9-5.3 14.6-6.8 5.7-1.5 12.2-2.3 19.3-2.3 7.1 0 13.5 0.8 19.2 2.3 5.7 1.5 10.5 3.8 14.5 6.8 4 3 7.1 6.7 9.2 11.2zm-15.3 15.5c0-2.5-0.4-5.1-1.2-7.6-0.8-2.5-2.2-4.8-4.3-6.8-2.1-2-4.9-3.6-8.4-4.9-3.5-1.3-8.1-1.9-13.6-1.9-5.5 0-7 0.3-9.8 0.9-2.8 0.6-5.2 1.4-7.3 2.4-2 1-3.8 2.2-5.2 3.6-1.4 1.4-2.5 2.8-3.3 4.4-0.8 1.6-1.4 3.2-1.8 4.9-0.4 1.7-0.5 3.4-0.5 5 0 1.6 0.2 3.4 0.5 5.1 0.3 1.7 0.9 3.4 1.8 4.9 0.8 1.6 1.9 3 3.3 4.4 1.4 1.4 3.1 2.5 5.2 3.5 2 1 4.5 1.8 7.3 2.4 2.8 0.6 6.1 0.9 9.8 0.9 5.5 0 10.1-0.6 13.6-1.9 3.5-1.3 6.4-2.9 8.4-4.9 2.1-2 3.5-4.3 4.3-6.8 0.8-2.5 1.2-5.1 1.2-7.6zm101.3 12.9l-46-47h-20v68.1h18.4v-46.8l45.9 46.8h19.9v-68.1h-18.3v47zm39.6 21.1h18.4v-68.1h-18.4zm30.5-53.3h28.9v53.3h18.4v-53.3h28.9v-14.8h-76.2zm146.7 26.4l22.3 26.9h-21.5l-20.6-25.1h-20.1v25.1h-18.4v-68.1h46.1q7.5 0 12.6 1.5c3.5 1 6.3 2.5 8.4 4.4 2.2 1.9 3.7 4.2 4.7 6.8 1 2.6 1.5 5.6 1.5 8.9 0 3.3-0.4 5.4-1.2 7.5-0.8 2.1-1.9 4-3.3 5.5q-2.1 2.2-4.8 3.9c-1.8 1.1-3.7 1.9-5.7 2.6zm-3.6-19.7c0-1.3-0.2-2.4-0.5-3.4-0.3-0.9-0.9-1.7-1.8-2.3-0.9-0.6-2-1-3.4-1.3-1.4-0.3-3.2-0.4-5.4-0.4h-25.2v14.6h25.2c2.1 0 3.9-0.1 5.4-0.4 1.4-0.3 2.6-0.7 3.4-1.3 0.9-0.6 1.5-1.3 1.8-2.3 0.3-1 0.5-2 0.5-3.4zm58 18.8h47.5v-14.5h-47.5v-11.3h50.1v-14.5h-68.9v68.1h69.6v-14.5h-50.8zm144.2-40.3h-22.1l-19.7 21.3-19.6-21.3h-22.1l30.7 33.2-32.3 34.9h22l21.2-22.9 21.3 22.9h22.1l-32.3-34.9 30.7-33.2zm88.7 13.8c1 2.8 1.5 6 1.5 9.4 0 3.4-0.5 6.5-1.5 9.4-1 2.9-2.6 5.3-4.8 7.4-2.2 2.1-5 3.7-8.5 4.8-3.5 1.1-7.8 1.7-12.8 1.7h-30.5v21.5h-18.4v-68.1h48.9c5 0 9.3 0.6 12.8 1.7 3.5 1.1 6.4 2.7 8.5 4.8 2.1 2.1 3.8 4.5 4.8 7.4zm-17.1 9.7c0-1.6-0.2-2.9-0.7-4.1-0.4-1.1-1.2-2.1-2.2-2.8-1-0.7-2.4-1.3-4-1.6-1.6-0.3-3.7-0.5-6.1-0.5h-26.6v17.5h26.6c2.4 0 4.4-0.1 6.1-0.4 1.7-0.3 3-0.8 4-1.4 1-0.7 1.8-1.6 2.2-2.7 0.4-1.1 0.7-2.4 0.7-4zm92.1 17.7l22.3 26.9h-21.5l-20.6-25.1h-20.1v25.1h-18.4v-68.1h46.1q7.5 0 12.6 1.5c3.5 1 6.3 2.5 8.4 4.4 2.2 1.9 3.7 4.2 4.7 6.8 1 2.7 1.5 5.6 1.5 8.9 0 3.3-0.4 5.4-1.2 7.5-0.8 2.1-1.9 4-3.3 5.5q-2.1 2.2-4.8 3.9c-1.8 1.1-3.7 1.9-5.7 2.6zm-3.6-19.7c0-1.3-0.2-2.4-0.5-3.4-0.3-0.9-0.9-1.7-1.8-2.3-0.9-0.6-2-1-3.4-1.3-1.4-0.3-3.2-0.4-5.4-0.4h-25.2v14.6h25.2c2.1 0 3.9-0.1 5.4-0.4 1.4-0.3 2.6-0.7 3.4-1.3 0.9-0.6 1.5-1.3 1.8-2.3 0.3-1 0.5-2 0.5-3.4zm127.2 12.6c0 5.9-1.1 11-3.2 15.5-2.1 4.5-5.2 8.2-9.2 11.2-4 3-8.8 5.3-14.5 6.8-5.7 1.5-12.1 2.3-19.2 2.3-7.1 0-13.5-0.8-19.3-2.3-5.7-1.5-10.6-3.8-14.6-6.8-4-3-7.1-6.7-9.3-11.2-2.2-4.5-3.3-9.6-3.3-15.5 0-5.9 1.1-11 3.3-15.5 2.2-4.5 5.3-8.2 9.3-11.2 4-3 8.9-5.3 14.6-6.8 5.7-1.5 12.2-2.3 19.3-2.3 7.1 0 13.5 0.8 19.2 2.3 5.7 1.5 10.5 3.8 14.5 6.8 4 3 7.1 6.7 9.2 11.2 2.1 4.5 3.2 9.6 3.2 15.5zm-18.6 0c0-2.5-0.4-5.1-1.2-7.6-0.8-2.5-2.2-4.8-4.3-6.8-2.1-2-4.9-3.6-8.4-4.9-3.5-1.3-8.1-1.9-13.6-1.9-5.5 0-7 0.3-9.8 0.9-2.8 0.6-5.2 1.4-7.3 2.4-2 1-3.8 2.2-5.2 3.6-1.4 1.4-2.5 2.8-3.3 4.4-0.8 1.6-1.4 3.2-1.8 4.9-0.4 1.7-0.5 3.4-0.5 5 0 1.6 0.2 3.4 0.5 5.1 0.3 1.7 0.9 3.4 1.8 4.9 0.8 1.6 1.9 3 3.3 4.4 1.4 1.4 3.1 2.5 5.2 3.5 2 1 4.5 1.8 7.3 2.4 2.8 0.6 6.1 0.9 9.8 0.9 5.5 0 10.1-0.6 13.6-1.9 3.6-1.3 6.4-2.9 8.4-4.9 2.1-2 3.5-4.3 4.3-6.8 0.8-2.5 1.2-5.1 1.2-7.6zm-686.1 132.3v99.8c0 0 167.2 4.9 186-182h-99.6c-18.5 93.3-86.4 82.2-86.4 82.2zm85-187.4h96.6c-32.3-173.2-181.7-172.2-181.7-172.2v101.1c0 0 64.8-7.8 85.1 71.1zm218.1 105.2h-99.6c18.8 186.9 186 182 186 182v-99.8c0 0-67.9 11.2-86.4-82.2zm-95.3-105.2h96.6c20.3-78.9 85.1-71.1 85.1-71.1v-101.1c0 0-149.4-1-181.7 172.2z"/>
		</g>
	</g>
</svg>