<?xml version="1.0" encoding="UTF-8"?>
<svg xmlns="http://www.w3.org/2000/svg" version="1.1" viewBox="0 0 1366 768">
  <defs>
    <style>
      .cls-1 {
        fill: #fff;
      }

      .cls-2 {
        fill: #0ee811;
      }

      .cls-3 {
        fill: none;
        stroke: #fff;
        stroke-miterlimit: 10;
        stroke-width: 19.6px;
      }

      .cls-4 {
        fill: #1e1e1e;
      }

      .cls-4, .cls-5 {
        display: none;
      }
    </style>
  </defs>
  <!-- Generator: Adobe Illustrator 28.7.1, SVG Export Plug-In . SVG Version: 1.2.0 Build 142)  -->
  <g>
    <g id="_Слой_1" data-name="Слой_1">
      <rect class="cls-4" x="1016.3" y="109.6" width="326" height="326" rx="20" ry="20"/>
      <g id="_комп_с_краником" class="cls-5">
        <path class="cls-1" d="M387.9,279.7c5.2,0,9.4-4.2,9.4-9.4s-4.2-9.4-9.4-9.4-9.4,4.2-9.4,9.4,4.2,9.4,9.4,9.4h0ZM463,249.6c5.2,0,9.4-4.2,9.4-9.4s-4.2-9.4-9.4-9.4-9.4,4.2-9.4,9.4,4.2,9.4,9.4,9.4h0ZM320.3,249.6h3.8v3.8c0,2.1,1.5,3.8,3.6,3.9s3.8-1.5,3.9-3.6v-4.1h3.8c2.1.1,3.9-1.5,4-3.5s-1.5-3.9-3.5-4h-4.2v-3.8c0-2.1-1.5-3.8-3.6-3.9s-3.8,1.5-3.9,3.6v4.1h-3.8c-2.1-.1-3.9,1.5-4,3.5-.1,2.1,1.5,3.9,3.5,4h.4ZM523.1,275.9h3.8v3.8c0,2.1,1.8,3.7,3.9,3.6,2,0,3.5-1.6,3.6-3.6v-3.8h3.8c2.1,0,3.8-1.7,3.8-3.8s-1.7-3.8-3.8-3.8h-3.8v-3.8c0-2.1-1.8-3.7-3.9-3.6-2,0-3.5,1.6-3.6,3.6v3.8h-3.8c-2.1,0-3.8,1.7-3.8,3.8s1.7,3.8,3.8,3.8h0ZM508,313.5c-2.1,0-3.8,1.7-3.8,3.7h0v26.3c0,2.1,1.7,3.8,3.8,3.8s3.8-1.7,3.8-3.8v-26.3c0-2.1-1.7-3.8-3.8-3.8h0ZM508,362.3c2.1,0,3.8-1.7,3.8-3.8s-1.7-3.8-3.8-3.8-3.8,1.7-3.8,3.8,1.7,3.8,3.8,3.8Z"/>
        <path class="cls-1" d="M538.1,426.1h-11.3v-120.2c0-6.2-5-11.3-11.3-11.3h-172.8c-6.2,0-11.3,5-11.3,11.3s0,0,0,0v120.2h-11.3c-2.1,0-3.8,1.7-3.8,3.8,0,14.5,11.8,26.3,26.3,26.3h172.8c14.5,0,26.3-11.8,26.3-26.3s-1.7-3.8-3.8-3.8h.2ZM451.7,441.2h-45.1c-3.2,0-6-3.2-7-7.5h59.2c-1.1,4.3-3.9,7.5-7,7.5h-.1ZM519.3,426.1h-180.3v-120.2c0-2.1,1.7-3.8,3.7-3.8h172.8c2.1,0,3.8,1.7,3.8,3.8h0v120.2h0Z"/>
        <path class="cls-1" d="M508,411.1h-9.4v-26.3c0-2.1-1.7-3.8-3.8-3.8h-18.8c-2.1,0-3.8,1.7-3.8,3.8v26.3h-11.3v-41.3c0-2.1-1.7-3.8-3.8-3.8h-18.8c-2.1,0-3.8,1.7-3.8,3.8v41.3h-11.3v-63.9c0-2.1-1.7-3.8-3.8-3.8h-18.8c-2.1,0-3.8,1.7-3.8,3.8v63.8h-11.3v-90.1c0-2.1-1.7-3.8-3.7-3.8h-18.8c-2.1,0-3.8,1.7-3.8,3.8v90.1h-9.4c-2.1,0-3.7,1.8-3.6,3.9,0,2,1.6,3.5,3.6,3.6h157.7c2.1,0,3.8-1.7,3.8-3.8s-1.7-3.8-3.8-3.8h0l.5.2ZM436.7,339.7c1,0,2-.4,2.7-1.1l6.4-6.4h39.8c2.1,0,3.8-1.7,3.8-3.8s-1.7-3.8-3.8-3.8h-41.3c-1,0-2,.4-2.7,1.1l-7.5,7.5c-1.5,1.5-1.5,3.9,0,5.3.7.7,1.7,1.1,2.6,1.1h0ZM463,317.2h22.5c2.1,0,3.8-1.7,3.8-3.7s-1.7-3.8-3.7-3.8h-22.5c-2.1,0-3.8,1.7-3.8,3.7s1.7,3.8,3.7,3.8h0Z"/>
      </g>
      <g id="_оператор" class="cls-5">
        <rect class="cls-1" x="652.6" y="313.3" width="22" height="40" rx="6.2" ry="6.2"/>
        <rect class="cls-1" x="752.6" y="313.3" width="22" height="40" rx="6.2" ry="6.2"/>
        <path class="cls-1" d="M778.6,400.3c-7-10.4-32.8-22.4-39.4-25.3-1-.4-2.1-.3-2.9.3-1.5,1-4.1,2.8-6.7,4s-6.3,2.2-8.4,2.7-1.8.9-2.2,1.9l-2.7,7.3c-.9,2.6-4.6,2.7-5.6,0l-2.6-6.5c-.4-.9-1.2-1.6-2.2-1.8-2.1-.4-5.7-1.3-8.4-2.7s-4.9-3.2-6.4-4.6-2.3-1-3.4-.5c-6.7,3.4-29.5,15.1-36.3,21-8.4,7.3-12.8,28.7-13.8,33.9s0,1.6.4,2.2c3.2,4.8,19.8,24,76.6,23.1,56.7-1,71-18.7,73.7-23.1s.5-1.3.4-2c-.6-4.1-3.4-19.6-10.3-30h.2ZM755.6,415.3h-21c-1.7,0-3-1.3-3-3h0c0-1.7,1.3-3,3-3h21c1.7,0,3,1.3,3,3h0c0,1.7-1.3,3-3,3Z"/>
        <rect class="cls-1" x="706.6" y="354.3" width="17" height="12" rx="4" ry="4"/>
        <path class="cls-1" d="M670.9,313.3s-.3-8,3.7-16,16.1-20,39.1-19.5,30.9,8.5,35.9,15.5,7,19,7,22,8,1,8,1c0,0,0-16-5-25s-19.9-23-45.9-22-34.4,8.1-42.8,17.1-9.3,31.9-9.3,31.9l9-2,.3-3Z"/>
        <path class="cls-1" d="M722.6,357.3s10.8,1,20.4,0,16.6-6,16.6-6h7.2s-7.2,8-15.2,10-30.6,1.1-30.6,1.1l1.6-5.1Z"/>
        <path class="cls-1" d="M676,312.6c-.2-.2-.4-.6-.3-.9.2-2.4,1.5-11,6-16.4s13.5-12.5,31.7-12.2,26.3,6.2,29.3,9.2c7,7,8.4,20,8.7,20s-3.8,3-3.8,6-.9,30,0,31,0,0,0,0c.7.6.5,1.7-.4,2-2.1.9-5.6,1.9-9.7,1.9h-11.5c-.3,0-.6-.1-.9-.4-1-1-4.2-3.6-10.7-3.6s-13,5-13,10,1,11,12,11,11-1.8,11.7-2.6.6-.4.9-.4h9.7c1.1,0,1.6,1.3.9,2.1-3,3.1-10,8.6-21.7,10.4s-32.9-20.5-36.8-25.5-.3-1.2.2-1.7c.9-.8,2.1-2,2.1-3.3,0-2,0-30-1-32s-2.8-3.8-3.6-4.6h.2Z"/>
      </g>
      <g id="_планета" class="cls-5">
        <circle class="cls-3" cx="640.5" cy="395.5" r="78.5"/>
        <line class="cls-3" x1="561" y1="394" x2="716" y2="394"/>
        <path class="cls-3" d="M635,319s-22.1,35-21.1,75,26.1,72,26.1,72c0,0,28.3-32,27.6-72s-24.6-75-24.6-75h-8Z"/>
      </g>
      <path class="cls-2" d="M976.6,231.2l-62.7-62.7c-4.2-4.2-9.9-6.5-16-6.5h-133.4c-28.9-52.1-84.4-87.4-148.3-87.4-93.5,0-169.2,75.7-169.2,169.2s75.7,169.2,169.2,169.2,116.3-33.5,145.6-83.3h14.4c5.3,0,10.6-2.3,14.4-6.1l26.6-26.6,29.3,29.3c3.8,3.8,9.5,3.8,13.3,0l23.9-23.9,22,22c2.3,2.3,6.5,2.3,8.7,0l60.8-60.8c9.1-9.1,9.1-23.6,0-32.7l1.1.4ZM565.2,291.3c-27.4,0-49.4-22-49.4-49.4s22-49.4,49.4-49.4,49.4,22,49.4,49.4-22,49.4-49.4,49.4ZM831.3,253.2h-46v-15.2h45.6c4.2,0,7.6,3.4,7.6,7.6s-3.4,7.6-7.6,7.6h.4Z"/>
      <path class="cls-2" d="M507.8,479.1l-82.5,35.7c-30,12.9-43.7,47.9-30.8,77.9l38,87.8c12.9,30,47.9,43.7,77.9,30.8l79.8-34.6-82.5-197.7Z"/>
      <path class="cls-2" d="M519.6,473.7c0,3.8,83.6,197.7,83.6,197.7l22-9.9c11-4.9,16-17.9,11.4-29.3l-66.5-156.6c-4.9-11.4-18.2-16.7-29.3-11.4l-21.3,9.5h0Z"/>
      <path class="cls-2" d="M565.2,488.6s45.6-30,110.2-37.6c64.6-7.6,98.5,18.6,140.7,19,42.2.4,45.6-15.2,60.8-11.4,15.2,3.8,22.8,11.4,11.4,38-11.4,26.6-38,26.6-72.2,26.6s-23.2,18.6,22.8,15.2,68.4-19,72.2-60.8c3.8-41.8-34.2-38-45.6-34.2-11.4,3.8-26.6,11.4-49.4,11.4s-68.4-30.4-114-26.6c-45.6,3.8-102.6,19-140.7,45.6-38,26.6,3.8,14.8,3.8,14.8Z"/>
      <path class="cls-2" d="M903.6,469.9c7.6-3.8,60.8-49.4,79.8-53.2s41.8-7.6,57,30.4-64.6,79.8-87.4,98.8c-22.8,19-98.8,60.8-125.5,72.2-26.6,11.4-76,22.8-133.1,19-57-3.8-64.6,7.6-64.6,7.6l-3.8-19s19-11.4,76-7.6c57,3.8,133.1-11.4,205.3-57,72.2-45.6,121.7-83.6,117.8-106.4s-22.8-26.6-34.2-22.8-87.4,57-87.4,57v-19Z"/>
    </g>
  </g>
</svg>